<svg xmlns="http://www.w3.org/2000/svg" viewBox="0 0 240 150" role="img" aria-labelledby="title desc">
  <title id="title">HFA SilverStrong logo</title>
  <desc id="desc">Hands supporting a healthcare building inside a blue circle</desc>
  <defs>
    <filter id="shadow" x="-20%" y="-20%" width="140%" height="150%">
      <feDropShadow dx="0" dy="6" stdDeviation="5" flood-color="#555" flood-opacity=".45"/>
    </filter>
  </defs>
  <ellipse cx="120" cy="137" rx="82" ry="11" fill="#555" opacity=".7"/>
  <circle cx="120" cy="70" r="67" fill="#1010ed" stroke="#fff600" stroke-width="1.5"/>
  <path d="M38 72 98 20l104 36-65-2-49 18z" fill="#fff" stroke="#fff600" stroke-width="1.5"/>
  <path d="m98 20 104 36-65-2-49-18z" fill="#0e3d99" stroke="#fff600" stroke-width="1.5"/>
  <path d="M64 72h127v57H64z" fill="#fff" stroke="#fff600" stroke-width="1.5"/>
  <path d="M64 72 39 74l-1 55h26z" fill="#f00" stroke="#fff600" stroke-width="1.5"/>
  <path d="M137 72h54v57h-54z" fill="#0d13df" stroke="#fff600" stroke-width="1.5"/>
  <g fill="#0d3d99" stroke="#fff600" stroke-width="1">
    <path d="M96 86h18v16H96z"/>
    <path d="M158 86h18v16h-18z"/>
  </g>
  <g fill="#fff" stroke="#1010ed" stroke-width="1.5" filter="url(#shadow)">
    <path d="M73 78c-8 2-14 8-12 16l15 30 17 25 19-2-4-34-16-28c-5-8-12-10-19-7z"/>
    <path d="M167 78c8 2 14 8 12 16l-15 30-17 25-19-2 4-34 16-28c5-8 12-10 19-7z"/>
  </g>
  <text x="120" y="119" text-anchor="middle" font-family="Arial, sans-serif" font-size="24" font-style="italic" font-weight="700" fill="#f00" stroke="#fff" stroke-width="3" paint-order="stroke">HFA</text>
</svg>
